<?xml version="1.0" encoding="UTF-8"?><svg id="Layer_1" xmlns="http://www.w3.org/2000/svg" viewBox="-10 -35 170 170"><defs><style>.cls-1{fill:#fc4437;}</style></defs><g><path class="cls-1" d="M75.63,64.72c-8.58-1.33-14.78-9.11-14.03-17.89,.67-7.8,6.62-13.87,14.03-15.02v-12.72c-13.91,1.21-25.37,12.26-26.61,26.65-1.02,11.78,5.09,22.53,14.75,28.01,4.41,1.06,8.48,2.38,11.6,3.66,.09,0,.17,.02,.26,.03v-12.72Z"/><path class="cls-1" d="M49.05,71.63c-.71-.89-1.39-1.79-2.02-2.74l-8.47,1.55-2.79-5.97,6.61-5.5c-.44-1.48-.8-3-1.05-4.54l-8.36-2.03-.12-6.59,8.29-2.34c.2-1.56,.5-3.09,.88-4.57l-6.81-5.26,2.57-6.07,8.51,1.23c.81-1.33,1.71-2.61,2.67-3.82l-4.09-7.57,4.81-4.5,7.28,4.59c1.28-.88,2.61-1.69,3.99-2.41l-.65-8.58,6.23-2.15,4.78,7.15c1.42-.27,2.86-.44,4.33-.54v-2.34c-3.93-3.7-9.52-7.17-17.33-8.25-1.76-.24-3.69-.32-5.73-.37-15.67-.4-26.91,6.52-27.52,6.71-.53,.17-.63,.24-.6,.67l-6.01,69.22c.02,.12,0,.3-.02,.46,2.5-.97,4.51-1.66,6-2.05,.28-.07,.62-.17,1.02-.28,3.75-1.06,12.34-3.49,23.61-3.12Z"/></g><path class="cls-1" d="M74.78,36.08c-5.05,1.42-8.74,5.88-9.19,11.09h0c-.52,6.06,3.34,11.64,9.2,13.28l.9,.25v-24.88l-.9,.25Z"/><g><rect class="cls-1" x="103.89" y="37.77" width="3.21" height="4.29"/><rect class="cls-1" x="103.89" y="45.66" width="3.21" height="4.29"/><rect class="cls-1" x="108.94" y="53.55" width="3.21" height="4.29"/><rect class="cls-1" x="103.89" y="53.55" width="3.21" height="4.29"/><rect class="cls-1" x="108.94" y="37.77" width="3.21" height="4.29"/><rect class="cls-1" x="113.98" y="37.77" width="3.21" height="4.29"/><rect class="cls-1" x="113.98" y="53.55" width="3.21" height="4.29"/><rect class="cls-1" x="113.98" y="45.66" width="3.21" height="4.29"/><rect class="cls-1" x="108.94" y="45.66" width="3.21" height="4.29"/></g><path class="cls-1" d="M79.92,77.47c.45-.19,.93-.38,1.42-.57,1.69-.72,3.43-1.44,5.75-2.1V28.05l17.38-.04v4.04h-5.03v40.08c.67-.09,1.35-.18,2.02-.25V34.08l18.23-.07v38.34c.66,.18,1.37,.3,2.04,.42V32.06h-15.24V11.55h19.56v61.98c.09,.08,.24,.15,.41,.23,1.5,.36,2.73,.69,3.64,.95,.4,.11,.74,.21,1.02,.28,1.48,.39,3.48,1.07,5.95,2.02-.02-.14-.03-.29-.01-.39l-6.01-69.22c.03-.43-.07-.5-.6-.67-.61-.19-11.84-7.11-27.52-6.71-2.04,.05-3.97,.12-5.73,.37-7.81,1.09-13.41,4.55-17.33,8.25V77.52s.03-.01,.05-.02v-.03Z"/><path class="cls-1" d="M110.61,71.43c.91,.03,1.81,.08,2.69,.13,0,0,0,0,0,0v-8.04h-5.5v7.85c.94,0,1.87,.03,2.78,.06,.01,0,.02,0,.04,0Z"/><rect class="cls-1" x="109.74" y="15.11" width="3.21" height="4.29"/><rect class="cls-1" x="109.74" y="23" width="3.21" height="4.29"/><rect class="cls-1" x="114.79" y="15.11" width="3.21" height="4.29"/><rect class="cls-1" x="119.83" y="15.11" width="3.21" height="4.29"/><rect class="cls-1" x="119.83" y="23" width="3.21" height="4.29"/><rect class="cls-1" x="114.79" y="23" width="3.21" height="4.29"/><rect class="cls-1" x="89.14" y="32.05" width="3.21" height="4.29"/><rect class="cls-1" x="89.14" y="39.94" width="3.21" height="4.29"/><rect class="cls-1" x="94.19" y="32.05" width="3.21" height="4.29"/><rect class="cls-1" x="94.19" y="39.94" width="3.21" height="4.29"/><path class="cls-1" d="M74.06,80.88c-7.18-2.93-16.7-5.15-25.11-5.47-11.71-.44-20.73,2.54-24.56,3.62l-.16,.04c-.39,.11-.72,.2-.99,.27-2.8,.73-7.05,2.42-10.33,3.8L21.03,18.71l-.52,.26L0,100.13c6.39-6.12,19.55-12.43,35.44-16.38,14.14-3.51,27.25-4.34,35.96-2.78,.94,.11,1.79,.24,2.66,.4,0-.07,0-.5,0-.5Z"/><path class="cls-1" d="M134.88,18.97l-.52-.26,8.11,64.44c-3.27-1.38-7.52-3.06-10.33-3.8-.27-.07-.6-.16-.99-.27l-.16-.04c-3.82-1.08-12.84-4.07-24.56-3.62-8.41,.32-17.93,2.54-25.11,5.47,0,0,0,.43,0,.5,.87-.15,1.72-.29,2.66-.4,8.71-1.57,21.82-.73,35.96,2.78,15.89,3.94,29.05,10.26,35.44,16.38l-20.52-81.16Z"/></svg>